<?xml version="1.0" encoding="UTF-8" standalone="no"?>
<!DOCTYPE svg PUBLIC "-//W3C//DTD SVG 1.1//EN" "http://www.w3.org/Graphics/SVG/1.1/DTD/svg11.dtd">
<!-- Generated by graphviz version 2.43.0 (0) -->
<!-- Title: binary_variant_calling_tree Pages: 1 -->
<svg width="1286pt" height="260pt" viewBox="0.00 0.00 1285.64 260.00" xmlns="http://www.w3.org/2000/svg" xmlns:xlink="http://www.w3.org/1999/xlink">
<g id="graph0" class="graph" transform="scale(1 1) rotate(0) translate(4 256)">
<title>binary_variant_calling_tree</title>
<polygon fill="white" stroke="transparent" points="-4,4 -4,-256 1281.64,-256 1281.64,4 -4,4"/>
<!-- Root -->
<g id="node1" class="node">
<title>Root</title>
<ellipse fill="none" stroke="black" cx="650.19" cy="-234" rx="32.49" ry="18"/>
<text text-anchor="middle" x="650.19" y="-230.3" font-family="Times,serif" font-size="14.00">Root</text>
</g>
<!-- Node1 -->
<g id="node2" class="node">
<title>Node1</title>
<ellipse fill="none" stroke="black" cx="488.19" cy="-162" rx="40.89" ry="18"/>
<text text-anchor="middle" x="488.19" y="-158.3" font-family="Times,serif" font-size="14.00">Node1</text>
</g>
<!-- Root-&gt;Node1 -->
<g id="edge1" class="edge">
<title>Root-&gt;Node1</title>
<path fill="none" stroke="black" d="M625.24,-222.22C598.73,-210.76 556.51,-192.52 525.93,-179.31"/>
<polygon fill="black" stroke="black" points="527.02,-175.96 516.45,-175.21 524.24,-182.39 527.02,-175.96"/>
</g>
<!-- Node2 -->
<g id="node3" class="node">
<title>Node2</title>
<ellipse fill="none" stroke="black" cx="812.19" cy="-162" rx="40.89" ry="18"/>
<text text-anchor="middle" x="812.19" y="-158.3" font-family="Times,serif" font-size="14.00">Node2</text>
</g>
<!-- Root-&gt;Node2 -->
<g id="edge2" class="edge">
<title>Root-&gt;Node2</title>
<path fill="none" stroke="black" d="M675.15,-222.22C701.66,-210.76 743.88,-192.52 774.45,-179.31"/>
<polygon fill="black" stroke="black" points="776.14,-182.39 783.94,-175.21 773.37,-175.96 776.14,-182.39"/>
</g>
<!-- Node3 -->
<g id="node4" class="node">
<title>Node3</title>
<ellipse fill="none" stroke="black" cx="406.19" cy="-90" rx="40.89" ry="18"/>
<text text-anchor="middle" x="406.19" y="-86.3" font-family="Times,serif" font-size="14.00">Node3</text>
</g>
<!-- Node1-&gt;Node3 -->
<g id="edge3" class="edge">
<title>Node1-&gt;Node3</title>
<path fill="none" stroke="black" d="M470.05,-150.22C456.66,-143.12 436.65,-132.25 420.93,-123.29"/>
<polygon fill="black" stroke="black" points="422.96,-120.09 412.92,-115.25 418.57,-125.8 422.96,-120.09"/>
</g>
<!-- Node4 -->
<g id="node5" class="node">
<title>Node4</title>
<ellipse fill="none" stroke="black" cx="570.19" cy="-90" rx="40.89" ry="18"/>
<text text-anchor="middle" x="570.19" y="-86.3" font-family="Times,serif" font-size="14.00">Node4</text>
</g>
<!-- Node1-&gt;Node4 -->
<g id="edge4" class="edge">
<title>Node1-&gt;Node4</title>
<path fill="none" stroke="black" d="M506.33,-150.29C518.94,-144.27 535.48,-136.05 549.63,-128.54"/>
<polygon fill="black" stroke="black" points="551.57,-131.82 557.48,-121.26 547.92,-125.02 551.57,-131.82"/>
</g>
<!-- Node5 -->
<g id="node6" class="node">
<title>Node5</title>
<ellipse fill="none" stroke="black" cx="734.19" cy="-90" rx="40.89" ry="18"/>
<text text-anchor="middle" x="734.19" y="-86.3" font-family="Times,serif" font-size="14.00">Node5</text>
</g>
<!-- Node2-&gt;Node5 -->
<g id="edge5" class="edge">
<title>Node2-&gt;Node5</title>
<path fill="none" stroke="black" d="M789.15,-150.29C776.7,-144.24 760.58,-136.02 746.21,-128.51"/>
<polygon fill="black" stroke="black" points="748.2,-125.02 738.64,-121.26 744.56,-131.81 748.2,-125.02"/>
</g>
<!-- Node6 -->
<g id="node7" class="node">
<title>Node6</title>
<ellipse fill="none" stroke="black" cx="898.19" cy="-90" rx="40.89" ry="18"/>
<text text-anchor="middle" x="898.19" y="-86.3" font-family="Times,serif" font-size="14.00">Node6</text>
</g>
<!-- Node2-&gt;Node6 -->
<g id="edge6" class="edge">
<title>Node2-&gt;Node6</title>
<path fill="none" stroke="black" d="M835.86,-149.88C847.47,-143.85 863.69,-135.58 877.43,-128.05"/>
<polygon fill="black" stroke="black" points="879.41,-131.61 885.32,-121.05 875.76,-124.81 879.41,-131.61"/>
</g>
<!-- A -->
<g id="node8" class="node">
<title>A</title>
<ellipse fill="none" stroke="black" cx="325.19" cy="-18" rx="83.39" ry="18"/>
<text text-anchor="middle" x="325.19" y="-14.3" font-family="Times,serif" font-size="14.00">Variant Present</text>
</g>
<!-- Node3-&gt;A -->
<g id="edge7" class="edge">
<title>Node3-&gt;A</title>
<path fill="none" stroke="black" d="M388.22,-73.46C377.69,-64.37 364.18,-52.7 352.38,-42.49"/>
<polygon fill="black" stroke="black" points="354.39,-39.6 344.53,-35.71 349.81,-44.9 354.39,-39.6"/>
</g>
<!-- B -->
<g id="node9" class="node">
<title>B</title>
<ellipse fill="none" stroke="black" cx="487.19" cy="-18" rx="60.39" ry="18"/>
<text text-anchor="middle" x="487.19" y="-14.3" font-family="Times,serif" font-size="14.00">No Variant</text>
</g>
</g>
<!-- Node3-&gt;B -->
<!-- <g id="edge8" class="edge">
<title>Node3-&gt;B</title>
<path fill="none" stroke="black" d="M424.17,-73.46C434.85,-64.24 448.59,-52.36 460.52,-42.05"/>
<polygon fill="black" stroke="black" points="463.14,-44.41 468.42,-35.22 458.57 -->
</svg>